<?xml version="1.0" encoding="UTF-8"?>
<svg fill="rgb(255, 255, 255)" width="700pt" height="700pt" version="1.1" viewBox="0 0 700 550" xmlns="http://www.w3.org/2000/svg" xmlns:xlink="http://www.w3.org/1999/xlink">
 <g>
  <path d="m170.24 261.52c-0.55859 0.55859-1.1211 1.6797-1.6797 2.2383v-23.52c0-7.8398 0.55859-15.68 2.2383-23.52 11.199-53.762 58.801-94.641 115.92-94.641h110.32v-66.078l134.4 113.12-134.4 113.12v-65.523h-133.84c-37.52 0-71.121 17.359-92.961 44.801zm266.56 81.762h-133.84v-66.082l-134.4 113.12 134.4 113.12v-65.52h110.32c57.117 0 104.72-40.32 115.92-94.641 1.6797-7.8398 2.2383-15.68 2.2383-23.52v-23.52c-0.55859 0.55859-1.1211 1.6797-1.6797 2.2383-21.836 27.441-55.438 44.801-92.957 44.801z"/>
 </g>
</svg>
