<?xml version="1.0" encoding="UTF-8"?>
<svg fill="rgb(255, 255, 255)" width="700pt" height="700pt" version="1.1" viewBox="0 0 700 550" xmlns="http://www.w3.org/2000/svg" xmlns:xlink="http://www.w3.org/1999/xlink">
 <g>
  <path d="m616.79 246.96-184.35-184.35c-8.3828-8.8203-19.969-13.883-32.137-14.039-12.164-0.15625-23.879 4.6016-32.484 13.203-8.6055 8.5977-13.379 20.309-13.23 32.473 0.14844 12.164 5.1992 23.758 14.012 32.145l108.97 108.81h-362.43c-16.125 0-31.027 8.6055-39.09 22.57-8.0625 13.965-8.0625 31.168 0 45.133s22.965 22.57 39.09 22.57h361.42l-107.96 108.14c-10.926 11.492-15.016 27.875-10.777 43.156 4.2383 15.281 16.184 27.215 31.469 31.441 15.281 4.2227 31.664 0.11719 43.148-10.816l184.35-184.35c8.4961-8.4453 13.254-19.941 13.215-31.918 0.03125-0.375 0.03125-0.75 0-1.1211 0.027344-0.37109 0.027344-0.74609 0-1.1211-0.003906-11.969-4.7578-23.449-13.215-31.918z"/>
 </g>
</svg>
